<svg width="174" height="40" viewBox="0 0 174 40" fill="none" xmlns="http://www.w3.org/2000/svg">
<path d="M3.25 30.8H12.55C15.7167 30.8 17.3 29.2 17.3 26V22.55C17.3 19.3833 15.5667 17.8 12.1 17.8H3.25C2.91667 17.8 2.75 17.9333 2.75 18.2V30.35C2.75 30.65 2.91667 30.8 3.25 30.8ZM3.25 15.6H12.05C13.6167 15.6 14.8167 15.1833 15.65 14.35C16.5167 13.5167 16.95 12.3333 16.95 10.8V7.85C16.95 4.65 15.3667 3.05 12.2 3.05H3.25C2.91667 3.05 2.75 3.2 2.75 3.5V15.15C2.75 15.45 2.91667 15.6 3.25 15.6ZM0.25 32.4V1.45C0.25 1.05 0.416667 0.85 0.75 0.85H12.4C14.5667 0.85 16.2833 1.46667 17.55 2.7C18.8167 3.93333 19.45 5.63333 19.45 7.8V10.85C19.45 13.8833 18.0167 15.8333 15.15 16.7C16.3833 16.7667 17.4667 17.3333 18.4 18.4C19.3333 19.4667 19.8 20.85 19.8 22.55V26.05C19.8 28.2167 19.1667 29.9167 17.9 31.15C16.6333 32.3833 14.9167 33 12.75 33H0.75C0.416667 33 0.25 32.8 0.25 32.4ZM28.9949 33H27.5449C27.2116 33 27.0449 32.8 27.0449 32.4V8.1C27.0449 7.7 27.2116 7.5 27.5449 7.5H28.9949C29.3616 7.5 29.5449 7.7 29.5449 8.1V10.2H29.7449C30.1116 9.5 30.7616 8.88333 31.6949 8.35C32.6283 7.78333 33.7783 7.5 35.1449 7.5H37.0949C37.4616 7.5 37.6449 7.68333 37.6449 8.05V9.25C37.6449 9.61667 37.4616 9.78333 37.0949 9.75H34.7449C33.1116 9.75 31.8283 10.25 30.8949 11.25C29.9949 12.25 29.5449 13.6 29.5449 15.3V32.4C29.5449 32.8 29.3616 33 28.9949 33ZM59.6688 33H49.2188C47.0521 33 45.3354 32.3667 44.0688 31.1C42.8354 29.8333 42.2188 28.1 42.2188 25.9V14.6C42.2188 12.4 42.8354 10.6667 44.0688 9.4C45.3354 8.13333 47.0521 7.5 49.2188 7.5H53.5188C55.6854 7.5 57.4021 8.13333 58.6688 9.4C59.9354 10.6667 60.5688 12.4 60.5688 14.6V20.95C60.5688 21.35 60.3688 21.55 59.9688 21.55H45.1688C44.8688 21.55 44.7188 21.7 44.7188 22V25.85C44.7188 27.4167 45.1188 28.6333 45.9188 29.5C46.7188 30.3333 47.8854 30.75 49.4188 30.75H59.6688C60.0354 30.75 60.2188 30.9333 60.2188 31.3V32.45C60.2188 32.8167 60.0354 33 59.6688 33ZM45.1688 19.55H57.6188C57.9188 19.55 58.0688 19.4 58.0688 19.1V14.65C58.0688 13.0833 57.6688 11.8833 56.8688 11.05C56.0688 10.1833 54.9021 9.75 53.3688 9.75H49.4188C47.8854 9.75 46.7188 10.1833 45.9188 11.05C45.1188 11.8833 44.7188 13.0833 44.7188 14.65V19.1C44.7188 19.4 44.8688 19.55 45.1688 19.55ZM74.2781 33H72.2781C71.9448 33 71.7281 32.8 71.6281 32.4L64.6281 8.1C64.5281 7.7 64.6615 7.5 65.0281 7.5H66.6281C66.9948 7.5 67.2115 7.7 67.2781 8.1L73.1781 29.85H73.4281L79.2281 8.1C79.2948 7.7 79.5281 7.5 79.9281 7.5H81.3781C81.7781 7.5 82.0115 7.7 82.0781 8.1L87.7781 29.85H88.0281L93.9781 8.1C94.0781 7.7 94.2948 7.5 94.6281 7.5H96.2281C96.6281 7.5 96.7615 7.7 96.6281 8.1L89.6781 32.4C89.5781 32.8 89.3448 33 88.9781 33H86.9781C86.6115 33 86.3781 32.8 86.2781 32.4L80.7281 11.3H80.4781L74.9781 32.4C74.8781 32.8 74.6448 33 74.2781 33ZM106.259 33H102.009C101.309 33 100.959 32.65 100.959 31.95V1.9C100.959 1.2 101.309 0.85 102.009 0.85H113.909C116.509 0.85 118.542 1.56667 120.009 3C121.476 4.43333 122.209 6.45 122.209 9.05V12.95C122.209 16.7167 120.726 19.2167 117.759 20.45V20.65L123.109 31.8C123.409 32.6 123.126 33 122.259 33H118.209C117.609 33 117.176 32.9333 116.909 32.8C116.642 32.6667 116.426 32.3833 116.259 31.95L111.259 21.15H107.909C107.509 21.15 107.309 21.3333 107.309 21.7V31.95C107.309 32.65 106.959 33 106.259 33ZM107.859 16.05H112.759C113.826 16.05 114.609 15.8333 115.109 15.4C115.609 14.9333 115.859 14.2 115.859 13.2V9.3C115.859 8.26667 115.609 7.51667 115.109 7.05C114.609 6.58333 113.826 6.35 112.759 6.35H107.859C107.492 6.35 107.309 6.53333 107.309 6.9V15.5C107.309 15.8667 107.492 16.05 107.859 16.05ZM146.603 33H135.553C132.919 33 130.886 32.3 129.453 30.9C128.019 29.5 127.303 27.4833 127.303 24.85V15.65C127.303 13.0167 128.019 11 129.453 9.6C130.886 8.2 132.919 7.5 135.553 7.5H139.503C142.136 7.5 144.169 8.2 145.603 9.6C147.036 11 147.753 13.0167 147.753 15.65V22C147.753 22.7 147.403 23.05 146.703 23.05H134.153C133.753 23.05 133.553 23.2333 133.553 23.6V24.7C133.553 25.7333 133.769 26.4833 134.203 26.95C134.669 27.3833 135.436 27.6 136.503 27.6H146.603C147.303 27.6 147.653 27.9667 147.653 28.7V32C147.653 32.3667 147.569 32.6333 147.403 32.8C147.269 32.9333 147.003 33 146.603 33ZM134.153 18.8H140.953C141.319 18.8 141.503 18.6167 141.503 18.25V15.85C141.503 14.7833 141.286 14.0333 140.853 13.6C140.419 13.1667 139.669 12.95 138.603 12.95H136.503C135.436 12.95 134.686 13.1667 134.253 13.6C133.819 14.0333 133.603 14.7833 133.603 15.85V18.25C133.603 18.6167 133.786 18.8 134.153 18.8ZM157.81 39.8H153.56C152.86 39.8 152.51 39.4667 152.51 38.8V8.55C152.51 7.85 152.86 7.5 153.56 7.5H157.81C158.51 7.5 158.86 7.85 158.86 8.55V10.2H159.06C159.426 9.3 160.076 8.63333 161.01 8.2C161.943 7.73333 162.926 7.5 163.96 7.5H166.01C168.576 7.5 170.51 8.2 171.81 9.6C173.143 11 173.81 13.0167 173.81 15.65V24.85C173.81 27.4833 173.143 29.5 171.81 30.9C170.51 32.3 168.576 33 166.01 33H163.96C162.926 33 161.943 32.7833 161.01 32.35C160.076 31.8833 159.426 31.2 159.06 30.3H158.86V38.8C158.86 39.4667 158.51 39.8 157.81 39.8ZM162.31 27.5H164.51C165.576 27.5 166.326 27.2833 166.76 26.85C167.226 26.3833 167.46 25.6167 167.46 24.55V15.95C167.46 14.8833 167.226 14.1333 166.76 13.7C166.326 13.2333 165.576 13 164.51 13H162.31C160.01 13 158.86 14.2667 158.86 16.8V23.7C158.86 26.2333 160.01 27.5 162.31 27.5Z" fill="white"/>
</svg>
